<svg width="24" height="24" viewBox="0 0 24 24" fill="none" xmlns="http://www.w3.org/2000/svg">
<path d="M11.5 6C15.0752 6 17.5168 8.5 16.9064 12.7391C16.296 16.7609 14.116 19.4783 11.5 21C8.88399 19.4783 6.70398 16.7609 6.09358 12.7391C5.48317 8.5 7.92478 6 11.5 6Z" stroke="black" stroke-width="1.7" stroke-linecap="round" stroke-linejoin="round"/>
<path d="M11.0433 5.48455C11.0433 5.48455 16.5437 3.42496 14.5741 2.46671C12.6044 1.50847 11.0433 5.48455 11.0433 5.48455ZM11.0433 5.48455C11.0433 5.48455 12.3999 2 10.1506 2C7.90132 2 11.0433 5.48455 11.0433 5.48455ZM9 10.1189H9.09779M14.5743 10.1189H14.6721M11.9022 9.5H12M9.58677 15H9.68456M13.8897 15H13.9875M11.7383 12.7472H11.8361" stroke="black" stroke-linecap="round" stroke-linejoin="round"/>
</svg>
